<svg width="461" height="184" viewBox="0 0 461 184" fill="none" xmlns="http://www.w3.org/2000/svg">
<path d="M75.5 4H135.822L69.5 104H93.5V77H149.5V104H172.5V150H149.5V180H91.5V150H0V112.5L75.5 4Z" fill="white"/>
<path d="M89.5 4H149.822L83.5 104H107.5V77H163.5V104H186.5V150H163.5V180H105.5V150H14V112.5L89.5 4Z" fill="#262626"/>
<path fill-rule="evenodd" clip-rule="evenodd" d="M221.691 183.5C328.695 183.5 328.695 -8.68102e-05 221.191 0C113.687 8.68102e-05 114.688 183.5 221.691 183.5ZM221.195 136.501C249.695 136.501 249.695 47.0007 221.195 47.0007C192.695 47.0007 192.695 136.501 221.195 136.501Z" fill="white"/>
<path fill-rule="evenodd" clip-rule="evenodd" d="M235.691 183.5C342.695 183.5 342.695 -8.68102e-05 235.191 0C127.687 8.68102e-05 128.688 183.5 235.691 183.5ZM235.195 136.501C263.695 136.501 263.695 47.0007 235.195 47.0007C206.695 47.0007 206.695 136.501 235.195 136.501Z" fill="#262626"/>
<path d="M349.5 4H409.822L343.5 104H367.5V77H423.5V104H446.5V150H423.5V180H365.5V150H274V112.5L349.5 4Z" fill="white"/>
<path d="M363.5 4H423.822L357.5 104H381.5V77H437.5V104H460.5V150H437.5V180H379.5V150H288V112.5L363.5 4Z" fill="#262626"/>
</svg>
